ffmpeg started on 2016-12-01 at 22:04:28
Report written to "Output/x264/results/ffmpeg/old_town_cross_2160p50slow14000k.log"
Command line:
Tools/ffmpeg/ffmpeg -benchmark -y -i Input/y4m/old_town_cross_2160p50.y4m -c:v libx264 -preset slow -b:v 14000k -an Output/x264/encoded/old_town_cross_2160p50slow14000k.mkv
ffmpeg version N-82227-gdb23fde Copyright (c) 2000-2016 the FFmpeg developers
  built with gcc 5.4.0 (Ubuntu 5.4.0-6ubuntu1~16.04.2) 20160609
  configuration: --prefix=/home/jaroslav/ffmpeg_build --pkg-config-flags=--static --extra-cflags=-I/home/jaroslav/ffmpeg_build/include --extra-ldflags=-L/home/jaroslav/ffmpeg_build/lib --bindir=/home/jaroslav/bin --enable-gpl --enable-libass --enable-libfdk-aac --enable-libfreetype --enable-libmp3lame --enable-libopus --enable-libtheora --enable-libvorbis --enable-libvpx --enable-libx264 --enable-libx265 --enable-nvenc --enable-libmfx --enable-libxvid --enable-libgsm --enable-libopencore-amrnb --enable-version3 --enable-nonfree
  libavutil      55. 35.100 / 55. 35.100
  libavcodec     57. 66.101 / 57. 66.101
  libavformat    57. 57.100 / 57. 57.100
  libavdevice    57.  2.100 / 57.  2.100
  libavfilter     6. 66.100 /  6. 66.100
  libswscale      4.  3.100 /  4.  3.100
  libswresample   2.  4.100 /  2.  4.100
  libpostproc    54.  2.100 / 54.  2.100
Input #0, yuv4mpegpipe, from 'Input/y4m/old_town_cross_2160p50.y4m':
  Duration: 00:00:10.00, start: 0.000000, bitrate: 4976642 kb/s
    Stream #0:0: Video: rawvideo (I420 / 0x30323449), yuv420p(progressive), 3840x2160, SAR 1:1 DAR 16:9, 50 fps, 50 tbr, 50 tbn, 50 tbc
[libx264 @ 0x40c1120] using SAR=1/1
[libx264 @ 0x40c1120] using cpu capabilities: MMX2 SSE2Fast SSSE3 SSE4.2 AVX FMA3 AVX2 LZCNT BMI2
[libx264 @ 0x40c1120] profile High, level 5.2
[libx264 @ 0x40c1120] 264 - core 148 - H.264/MPEG-4 AVC codec - Copyleft 2003-2016 - http://www.videolan.org/x264.html - options: cabac=1 ref=5 deblock=1:0:0 analyse=0x3:0x113 me=hex subme=8 psy=1 psy_rd=1.00:0.00 mixed_ref=1 me_range=16 chroma_me=1 trellis=2 8x8dct=1 cqm=0 deadzone=21,11 fast_pskip=1 chroma_qp_offset=-2 threads=6 lookahead_threads=1 sliced_threads=0 nr=0 decimate=1 interlaced=0 bluray_compat=0 constrained_intra=0 bframes=3 b_pyramid=2 b_adapt=1 b_bias=0 direct=3 weightb=1 open_gop=0 weightp=2 keyint=250 keyint_min=25 scenecut=40 intra_refresh=0 rc_lookahead=50 rc=abr mbtree=1 bitrate=14000 ratetol=1.0 qcomp=0.60 qpmin=0 qpmax=69 qpstep=4 ip_ratio=1.40 aq=1:1.00
Output #0, matroska, to 'Output/x264/encoded/old_town_cross_2160p50slow14000k.mkv':
  Metadata:
    encoder         : Lavf57.57.100
    Stream #0:0: Video: h264 (libx264) (H264 / 0x34363248), yuv420p, 3840x2160 [SAR 1:1 DAR 16:9], q=-1--1, 14000 kb/s, 50 fps, 1k tbn, 50 tbc
    Metadata:
      encoder         : Lavc57.66.101 libx264
    Side data:
      cpb: bitrate max/min/avg: 0/0/14000000 buffer size: 0 vbv_delay: -1
Stream mapping:
  Stream #0:0 -> #0:0 (rawvideo (native) -> h264 (libx264))
Press [q] to stop, [?] for help
frame=   57 fps= 18 q=0.0 size=       0kB time=00:00:00.00 bitrate=N/A speed=   0x    frame=   62 fps= 13 q=31.0 size=       1kB time=-00:00:00.01 bitrate=N/A speed=N/A    frame=   63 fps= 11 q=31.0 size=       1kB time=00:00:00.00 bitrate=5872.0kbits/s speed=0.000169x    frame=   67 fps= 10 q=34.0 size=       1kB time=00:00:00.08 bitrate=  72.5kbits/s speed=0.0125x    frame=   69 fps=9.5 q=48.0 size=       1kB time=00:00:00.12 bitrate=  48.5kbits/s speed=0.0166x    frame=   76 fps=9.7 q=49.0 size=       1kB time=00:00:00.26 bitrate=  22.5kbits/s speed=0.0333x    frame=   85 fps= 10 q=45.0 size=       1kB time=00:00:00.44 bitrate=  13.3kbits/s speed=0.0527x    frame=   93 fps= 10 q=43.0 size=       1kB time=00:00:00.60 bitrate=   9.8kbits/s speed=0.0676x    frame=   97 fps= 10 q=42.0 size=       1kB time=00:00:00.68 bitrate=   8.6kbits/s speed=0.0722x    frame=  104 fps= 10 q=42.0 size=       1kB time=00:00:00.82 bitrate=   7.2kbits/s speed=0.0818x    frame=  111 fps= 10 q=41.0 size=       1kB time=00:00:00.96 bitrate=   6.1kbits/s speed=0.09x    frame=  116 fps= 10 q=40.0 size=       1kB time=00:00:01.06 bitrate=   5.5kbits/s speed=0.0942x    frame=  121 fps= 10 q=38.0 size=       1kB time=00:00:01.16 bitrate=   5.1kbits/s speed=0.0983x    frame=  125 fps= 10 q=38.0 size=       1kB time=00:00:01.24 bitrate=   4.7kbits/s speed=0.101x    frame=  131 fps= 10 q=38.0 size=       1kB time=00:00:01.36 bitrate=   4.3kbits/s speed=0.105x    frame=  137 fps= 10 q=37.0 size=       1kB time=00:00:01.48 bitrate=   4.0kbits/s speed=0.11x    frame=  139 fps=9.9 q=37.0 size=       1kB time=00:00:01.52 bitrate=   3.9kbits/s speed=0.109x    frame=  144 fps=9.9 q=37.0 size=       1kB time=00:00:01.62 bitrate=   3.6kbits/s speed=0.111x    frame=  147 fps=9.7 q=36.0 size=       1kB time=00:00:01.68 bitrate=   3.5kbits/s speed=0.111x    frame=  153 fps=9.7 q=36.0 size=       1kB time=00:00:01.80 bitrate=   3.3kbits/s speed=0.115x    frame=  155 fps=9.5 q=36.0 size=       1kB time=00:00:01.84 bitrate=   3.2kbits/s speed=0.112x    frame=  162 fps=9.5 q=35.0 size=       1kB time=00:00:01.98 bitrate=   3.0kbits/s speed=0.116x    frame=  165 fps=9.3 q=35.0 size=       1kB time=00:00:02.04 bitrate=   2.9kbits/s speed=0.116x    frame=  169 fps=9.3 q=35.0 size=       1kB time=00:00:02.12 bitrate=   2.8kbits/s speed=0.117x    frame=  173 fps=9.2 q=35.0 size=       1kB time=00:00:02.20 bitrate=   2.7kbits/s speed=0.117x    frame=  175 fps=9.1 q=35.0 size=       1kB time=00:00:02.24 bitrate=   2.6kbits/s speed=0.116x    frame=  181 fps=9.0 q=34.0 size=       1kB time=00:00:02.36 bitrate=   2.5kbits/s speed=0.118x    frame=  183 fps=8.9 q=35.0 size=       1kB time=00:00:02.40 bitrate=   2.4kbits/s speed=0.116x    frame=  187 fps=8.8 q=34.0 size=       1kB time=00:00:02.48 bitrate=   2.4kbits/s speed=0.117x    frame=  191 fps=8.7 q=34.0 size=       1kB time=00:00:02.56 bitrate=   2.3kbits/s speed=0.116x    frame=  197 fps=8.7 q=34.0 size=       1kB time=00:00:02.68 bitrate=   2.2kbits/s speed=0.118x    frame=  199 fps=8.5 q=34.0 size=       1kB time=00:00:02.72 bitrate=   2.2kbits/s speed=0.117x    frame=  203 fps=8.5 q=34.0 size=       1kB time=00:00:02.80 bitrate=   2.1kbits/s speed=0.117x    frame=  207 fps=8.4 q=34.0 size=       1kB time=00:00:02.88 bitrate=   2.0kbits/s speed=0.117x    frame=  211 fps=8.3 q=34.0 size=       1kB time=00:00:02.96 bitrate=   2.0kbits/s speed=0.117x    frame=  215 fps=8.2 q=34.0 size=       1kB time=00:00:03.04 bitrate=   1.9kbits/s speed=0.117x    frame=  219 fps=8.2 q=34.0 size=    5131kB time=00:00:03.12 bitrate=13468.1kbits/s speed=0.116x    frame=  223 fps=8.1 q=34.0 size=    5131kB time=00:00:03.20 bitrate=13131.5kbits/s speed=0.117x    frame=  227 fps=8.0 q=34.0 size=    5131kB time=00:00:03.28 bitrate=12811.3kbits/s speed=0.116x    frame=  231 fps=8.0 q=33.0 size=    5131kB time=00:00:03.36 bitrate=12506.4kbits/s speed=0.117x    frame=  235 fps=7.9 q=33.0 size=    5131kB time=00:00:03.44 bitrate=12215.6kbits/s speed=0.115x    frame=  242 fps=7.9 q=33.0 size=    5131kB time=00:00:03.58 bitrate=11738.1kbits/s speed=0.117x    frame=  243 fps=7.8 q=33.0 size=    5131kB time=00:00:03.60 bitrate=11672.9kbits/s speed=0.115x    frame=  249 fps=7.8 q=33.0 size=    5131kB time=00:00:03.72 bitrate=11296.4kbits/s speed=0.116x    frame=  251 fps=7.6 q=33.0 size=    5131kB time=00:00:03.76 bitrate=11176.3kbits/s speed=0.114x    frame=  256 fps=7.6 q=33.0 size=    5131kB time=00:00:03.86 bitrate=10886.8kbits/s speed=0.115x    frame=  259 fps=7.5 q=33.0 size=    5131kB time=00:00:03.92 bitrate=10720.2kbits/s speed=0.114x    frame=  263 fps=7.5 q=33.0 size=    5131kB time=00:00:04.00 bitrate=10505.9kbits/s speed=0.114x    frame=  267 fps=7.5 q=33.0 size=    5131kB time=00:00:04.08 bitrate=10299.9kbits/s speed=0.114x    frame=  271 fps=7.4 q=33.0 size=    5131kB time=00:00:04.16 bitrate=10101.9kbits/s speed=0.113x    frame=  273 fps=7.2 q=33.0 size=    5131kB time=00:00:04.20 bitrate=10005.7kbits/s speed=0.111x    frame=  275 fps=7.1 q=33.0 size=    5131kB time=00:00:04.24 bitrate=9911.3kbits/s speed=0.109x    frame=  279 fps=7.1 q=34.0 size=    5131kB time=00:00:04.32 bitrate=9727.8kbits/s speed=0.11x    frame=  280 fps=7.0 q=34.0 size=    5131kB time=00:00:04.34 bitrate=9683.0kbits/s speed=0.108x    frame=  283 fps=6.9 q=34.0 size=    5131kB time=00:00:04.40 bitrate=9551.0kbits/s speed=0.107x    frame=  285 fps=6.9 q=34.0 size=    5131kB time=00:00:04.44 bitrate=9465.0kbits/s speed=0.107x    frame=  288 fps=6.8 q=34.0 size=    5131kB time=00:00:04.50 bitrate=9338.8kbits/s speed=0.106x    frame=  290 fps=6.8 q=34.0 size=    5131kB time=00:00:04.54 bitrate=9256.6kbits/s speed=0.106x    frame=  293 fps=6.7 q=34.0 size=    5131kB time=00:00:04.60 bitrate=9135.8kbits/s speed=0.106x    frame=  296 fps=6.7 q=34.0 size=    5131kB time=00:00:04.66 bitrate=9018.2kbits/s speed=0.105x    frame=  299 fps=6.7 q=34.0 size=    5131kB time=00:00:04.72 bitrate=8903.6kbits/s speed=0.105x    frame=  301 fps=6.6 q=34.0 size=    5131kB time=00:00:04.76 bitrate=8828.8kbits/s speed=0.105x    frame=  304 fps=6.6 q=34.0 size=    5131kB time=00:00:04.82 bitrate=8718.9kbits/s speed=0.105x    frame=  307 fps=6.6 q=35.0 size=    5131kB time=00:00:04.88 bitrate=8611.8kbits/s speed=0.105x    frame=  310 fps=6.6 q=35.0 size=    8453kB time=00:00:04.94 bitrate=14014.6kbits/s speed=0.105x    frame=  314 fps=6.6 q=35.0 size=    8453kB time=00:00:05.02 bitrate=13791.3kbits/s speed=0.105x    frame=  317 fps=6.5 q=35.0 size=    8453kB time=00:00:05.08 bitrate=13628.4kbits/s speed=0.105x    frame=  321 fps=6.5 q=35.0 size=    8453kB time=00:00:05.16 bitrate=13417.2kbits/s speed=0.105x    frame=  324 fps=6.5 q=35.0 size=    8453kB time=00:00:05.22 bitrate=13263.0kbits/s speed=0.105x    frame=  328 fps=6.5 q=35.0 size=    8453kB time=00:00:05.30 bitrate=13062.8kbits/s speed=0.106x    frame=  332 fps=6.5 q=35.0 size=    8453kB time=00:00:05.38 bitrate=12868.6kbits/s speed=0.105x    frame=  337 fps=6.5 q=35.0 size=    8453kB time=00:00:05.48 bitrate=12633.8kbits/s speed=0.106x    frame=  340 fps=6.5 q=35.0 size=    8453kB time=00:00:05.54 bitrate=12497.0kbits/s speed=0.106x    frame=  344 fps=6.5 q=34.0 size=    8453kB time=00:00:05.62 bitrate=12319.2kbits/s speed=0.106x    frame=  348 fps=6.5 q=34.0 size=    8453kB time=00:00:05.70 bitrate=12146.3kbits/s speed=0.106x    frame=  352 fps=6.5 q=34.0 size=    8453kB time=00:00:05.78 bitrate=11978.2kbits/s speed=0.106x    frame=  357 fps=6.5 q=34.0 size=    8453kB time=00:00:05.88 bitrate=11774.5kbits/s speed=0.107x    frame=  360 fps=6.5 q=34.0 size=    8453kB time=00:00:05.94 bitrate=11655.6kbits/s speed=0.107x    frame=  365 fps=6.5 q=34.0 size=    8453kB time=00:00:06.04 bitrate=11462.7kbits/s speed=0.108x    frame=  368 fps=6.5 q=34.0 size=    8453kB time=00:00:06.10 bitrate=11350.0kbits/s speed=0.107x    frame=  374 fps=6.5 q=34.0 size=    8453kB time=00:00:06.22 bitrate=11131.0kbits/s speed=0.108x    frame=  376 fps=6.4 q=34.0 size=    8453kB time=00:00:06.26 bitrate=11059.9kbits/s speed=0.107x    frame=  381 fps=6.5 q=34.0 size=    8453kB time=00:00:06.36 bitrate=10886.0kbits/s speed=0.108x    frame=  384 fps=6.4 q=34.0 size=    8453kB time=00:00:06.42 bitrate=10784.3kbits/s speed=0.107x    frame=  389 fps=6.5 q=34.0 size=    8453kB time=00:00:06.52 bitrate=10618.9kbits/s speed=0.108x    frame=  392 fps=6.4 q=34.0 size=    8453kB time=00:00:06.58 bitrate=10522.1kbits/s speed=0.108x    frame=  397 fps=6.4 q=34.0 size=    8453kB time=00:00:06.68 bitrate=10364.6kbits/s speed=0.108x    frame=  400 fps=6.4 q=34.0 size=    8453kB time=00:00:06.74 bitrate=10272.4kbits/s speed=0.108x    frame=  406 fps=6.4 q=34.0 size=    8453kB time=00:00:06.86 bitrate=10092.7kbits/s speed=0.109x    frame=  408 fps=6.4 q=34.0 size=    8453kB time=00:00:06.90 bitrate=10034.2kbits/s speed=0.108x    frame=  414 fps=6.4 q=34.0 size=    8453kB time=00:00:07.02 bitrate=9862.7kbits/s speed=0.109x    frame=  416 fps=6.3 q=34.0 size=    8453kB time=00:00:07.06 bitrate=9806.8kbits/s speed=0.108x    frame=  422 fps=6.4 q=33.0 size=    8453kB time=00:00:07.18 bitrate=9643.0kbits/s speed=0.109x    frame=  424 fps=6.3 q=33.0 size=    8453kB time=00:00:07.22 bitrate=9589.5kbits/s speed=0.108x    frame=  429 fps=6.3 q=33.0 size=    8453kB time=00:00:07.32 bitrate=9458.6kbits/s speed=0.108x    frame=  432 fps=6.3 q=33.0 size=    8453kB time=00:00:07.38 bitrate=9381.7kbits/s speed=0.108x    frame=  436 fps=6.3 q=33.0 size=    8453kB time=00:00:07.46 bitrate=9281.1kbits/s speed=0.108x    frame=  440 fps=6.3 q=33.0 size=    8453kB time=00:00:07.54 bitrate=9182.6kbits/s speed=0.108x    frame=  444 fps=6.3 q=33.0 size=    8453kB time=00:00:07.62 bitrate=9086.2kbits/s speed=0.108x    frame=  448 fps=6.3 q=33.0 size=    8453kB time=00:00:07.70 bitrate=8991.8kbits/s speed=0.108x    frame=  452 fps=6.3 q=33.0 size=    8453kB time=00:00:07.78 bitrate=8899.4kbits/s speed=0.108x    frame=  456 fps=6.3 q=33.0 size=    8453kB time=00:00:07.86 bitrate=8808.8kbits/s speed=0.108x    frame=  460 fps=6.3 q=33.0 size=    8453kB time=00:00:07.94 bitrate=8720.1kbits/s speed=0.108x    frame=  464 fps=6.2 q=33.0 size=    8453kB time=00:00:08.02 bitrate=8633.1kbits/s speed=0.108x    frame=  468 fps=6.2 q=33.0 size=    8453kB time=00:00:08.10 bitrate=8547.8kbits/s speed=0.108x    frame=  472 fps=6.2 q=33.0 size=   13643kB time=00:00:08.18 bitrate=13661.2kbits/s speed=0.108x    frame=  476 fps=6.2 q=33.0 size=   13643kB time=00:00:08.26 bitrate=13528.9kbits/s speed=0.108x    frame=  480 fps=6.2 q=33.0 size=   13643kB time=00:00:08.34 bitrate=13399.1kbits/s speed=0.108x    frame=  484 fps=6.2 q=33.0 size=   13643kB time=00:00:08.42 bitrate=13271.9kbits/s speed=0.108x    frame=  488 fps=6.2 q=33.0 size=   13643kB time=00:00:08.50 bitrate=13147.0kbits/s speed=0.108x    frame=  492 fps=6.2 q=33.0 size=   13643kB time=00:00:08.58 bitrate=13024.4kbits/s speed=0.108x    frame=  496 fps=6.2 q=33.0 size=   13643kB time=00:00:08.66 bitrate=12904.1kbits/s speed=0.108x    frame=  500 fps=6.2 q=33.0 size=   13643kB time=00:00:08.74 bitrate=12786.0kbits/s speed=0.108x    frame=  500 fps=5.3 q=-1.0 Lsize=   17414kB time=00:00:09.94 bitrate=14350.5kbits/s speed=0.106x    
video:17410kB audio:0kB subtitle:0kB other streams:0kB global headers:0kB muxing overhead: 0.026465%
bench: utime=352.348s
bench: maxrss=2232376kB
[libx264 @ 0x40c1120] frame I:3     Avg QP:28.68  size:679851
[libx264 @ 0x40c1120] frame P:183   Avg QP:32.60  size: 55546
[libx264 @ 0x40c1120] frame B:314   Avg QP:34.76  size: 17906
[libx264 @ 0x40c1120] consecutive B-frames: 16.0%  0.8%  0.0% 83.2%
[libx264 @ 0x40c1120] mb I  I16..4:  9.9% 77.9% 12.3%
[libx264 @ 0x40c1120] mb P  I16..4:  0.0%  0.1%  0.0%  P16..4: 40.9%  4.0%  8.3%  0.0%  0.0%    skip:46.7%
[libx264 @ 0x40c1120] mb B  I16..4:  0.0%  0.0%  0.0%  B16..8: 50.7%  0.3%  0.1%  direct: 0.1%  skip:48.8%  L0:47.7% L1:52.2% BI: 0.1%
[libx264 @ 0x40c1120] final ratefactor: 26.10
[libx264 @ 0x40c1120] 8x8 transform intra:78.1% inter:64.6%
[libx264 @ 0x40c1120] direct mvs  spatial:98.7% temporal:1.3%
[libx264 @ 0x40c1120] coded y,uvDC,uvAC intra: 93.0% 84.2% 68.8% inter: 5.5% 6.5% 0.1%
[libx264 @ 0x40c1120] i16 v,h,dc,p: 15% 24% 13% 48%
[libx264 @ 0x40c1120] i8 v,h,dc,ddl,ddr,vr,hd,vl,hu:  5%  8%  2% 14% 18% 13% 18%  9% 12%
[libx264 @ 0x40c1120] i4 v,h,dc,ddl,ddr,vr,hd,vl,hu:  2%  2%  1% 19% 21% 13% 18% 10% 14%
[libx264 @ 0x40c1120] i8c dc,h,v,p: 48% 24% 15% 13%
[libx264 @ 0x40c1120] Weighted P-Frames: Y:0.5% UV:0.0%
[libx264 @ 0x40c1120] ref P L0: 56.7% 17.3% 15.9%  4.3%  4.2%  1.6%
[libx264 @ 0x40c1120] ref B L0: 76.1% 16.0%  6.8%  1.2%
[libx264 @ 0x40c1120] ref B L1: 93.2%  6.8%
[libx264 @ 0x40c1120] kb/s:14261.54
